#N canvas 1282 23 632 1016 10;
#X obj 17 33 readsf~;
#X msg 17 10 open Fragmentos.wav \, 1;
#X obj 17 248 o.scofo~, f 19;
#X obj 17 295 nbx 5 16 -1e+37 1e+37 0 0 empty empty empty 0 -9 0 10 #fcfcfc #000000 #000000 0 256;
#X obj 73 272 nbx 5 16 -1e+37 1e+37 0 0 empty empty empty 0 -9 0 10 #fcfcfc #000000 #000000 0 256;
#X obj 25 110 dac~;
#X obj 25 74 rev3~ 100 90 50 20;
#X msg 50 177 score score.scofo.txt \, start;
#X obj 17 177 *~ 2;
#X connect 0 0 6 0;
#X connect 0 0 8 0;
#X connect 1 0 0 0;
#X connect 2 0 3 0;
#X connect 2 1 4 0;
#X connect 6 0 5 0;
#X connect 6 0 5 1;
#X connect 7 0 2 0;
#X connect 8 0 2 0;
