#N canvas 827 239 527 327 12;
#X declare -lib pd-neimog;
#X declare -path ../../;
#X obj 15 25 py4pd -lib kl;
#X obj 43 394 kl.array;
#N canvas 0 0 450 250 (subpatch) 0;
#X array arr1 4096 float 0;
#X coords 0 1 4095 -0.1 285 99 1;
#X restore 451 25 graph;
#X msg 113 186 reload;
#X obj 43 152 t b b;
#X obj 43 64 bng 76 250 50 0 empty empty empty 17 7 0 10 #e4e4e4 #232323 #373737;
#X obj 138 25 declare -lib pd-neimog;
#X msg 288 261 get instruments;
#X obj 213 345 dac~;
#N canvas 733 172 450 300 pack 0;
#X obj 14 32 unpack f f;
#X obj 112 83 sel 0;
#X obj 14 163 pack f s f, f 12;
#X msg 112 119 symbol noteoff;
#X msg 226 119 symbol noteon;
#X msg 14 198 \$2 \$1 \$3;
#X obj 14 9 inlet;
#X obj 14 248 outlet;
#X obj 226 163 list;
#X obj 226 192 outlet;
#X connect 0 0 2 0;
#X connect 0 1 1 0;
#X connect 0 1 2 2;
#X connect 1 0 3 0;
#X connect 1 1 4 0;
#X connect 2 0 5 0;
#X connect 3 0 2 1;
#X connect 4 0 2 1;
#X connect 5 0 7 0;
#X connect 5 0 8 0;
#X connect 6 0 0 0;
#X connect 8 0 9 0;
#X restore 214 261 pd pack;
#X obj 214 93 keyboard 16 80 2 4 0 0 empty empty;
#X obj 214 60 notein;
#X obj 43 313 mtof;
#X obj 138 261 unpack f f;
#X obj 43 248 f 69;
#X listbox 26 592 21 0 0 0 - - - 36;
#N canvas 0 0 450 250 (subpatch) 0;
#X array arr2 4096 float 0;
#X coords 0 0.1 4095 -0.001 340 99 1;
#X restore 751 25 graph;
#N canvas 0 50 450 300 (subpatch) 0;
#X obj 26 21 inlet~;
#X obj 26 51 rfft~, f 25;
#X obj 26 104 *~;
#X obj 182 104 *~;
#X obj 26 155 +~, f 25;
#X obj 26 339 tabwrite~ arr2;
#X obj 182 221 inlet;
#X obj 26 190 sqrt~;
#X obj 337 79 tgl 25 0 empty empty empty 17 7 0 10 #e4e4e4 #232323 #373737 0 1;
#X obj 345 15 loadbang;
#X obj 337 155 switch~ 4096;
#X obj 26 221 /~ 4096;
#X connect 0 0 1 0;
#X connect 1 0 2 0;
#X connect 1 0 2 1;
#X connect 1 1 3 0;
#X connect 1 1 3 1;
#X connect 2 0 4 0;
#X connect 3 0 4 1;
#X connect 4 0 7 0;
#X connect 6 0 5 0;
#X connect 7 0 11 0;
#X connect 8 0 10 0;
#X connect 9 0 8 0;
#X connect 11 0 5 0;
#X restore 280 345 pd;
#X obj 435 261 bng 72 250 50 0 empty empty empty 17 7 0 10 #e4e4e4 #232323 #373737;
#X obj 417 381 bng 70 250 50 0 empty empty empty 17 7 0 10 #e4e4e4 #232323 #373737;
#X obj 417 512 nbx 61 101 -1e+37 1e+37 0 0 empty empty empty 0 -8 0 10 #e4e4e4 #373737 #373737 0 256;
#X obj 723 277 array sum arr1;
#X obj 828 277 array sum arr2;
#X obj 828 222 bng 25 250 50 0 empty empty empty 17 7 0 10 #e4e4e4 #232323 #373737;
#X obj 828 306 nbx 13 18 -1e+37 1e+37 0 0 empty empty empty 0 -8 0 10 #e4e4e4 #373737 #373737 0 256;
#X obj 723 306 nbx 9 18 -1e+37 1e+37 0 0 empty empty empty 0 -8 0 10 #e4e4e4 #373737 #373737 0 256;
#X obj 326 359 print;
#X obj 213 300 musesampler~ -i 124;
#X obj 94 313 nbx 8 36 -1e+37 1e+37 0 0 empty empty empty 0 -8 0 10 #e4e4e4 #373737 #373737 0 256;
#X obj 435 340 del 0.2 1 sec;
#X obj 305 186 unpack f f;
#X obj 417 233 sel 0;
#X obj 305 222 nbx 5 28 -1e+37 1e+37 0 0 empty empty empty 0 -8 0 10 #e4e4e4 #373737 #373737 0 256;
#X obj 417 483 kl arr1 arr2;
#X obj 511 381 tgl 25 0 empty empty empty 17 7 0 10 #e4e4e4 #232323 #373737 0 1;
#X msg 511 420 exp \$1;
#X msg 573 420 beta \$1;
#X obj 573 381 nbx 5 25 -1e+37 1e+37 0 0 empty empty empty 0 -8 0 10 #e4e4e4 #373737 #373737 0 256;
#X msg 643 420 norm \$1;
#X obj 643 381 tgl 25 0 empty empty empty 17 7 0 10 #e4e4e4 #232323 #373737 0 1;
#X obj 589 198 pd-neimog;
#N canvas 0 50 450 300 (subpatch) 0;
#X obj 26 21 inlet~;
#X obj 26 51 rfft~, f 25;
#X obj 26 104 *~;
#X obj 182 104 *~;
#X obj 26 155 +~, f 25;
#X obj 26 190 sqrt~;
#X obj 337 79 tgl 25 0 empty empty empty 17 7 0 10 #e4e4e4 #232323 #373737 0 1;
#X obj 345 15 loadbang;
#X obj 337 155 switch~ 4096;
#X obj 26 221 /~ 4096;
#X obj 189 250 tabplay~ arr1;
#X obj 143 425 kl~;
#X obj 193 505 outlet;
#X obj 330 323 tgl 25 0 empty empty empty 17 7 0 10 #e4e4e4 #232323 #373737 0 1;
#X msg 330 362 exp \$1;
#X msg 392 362 beta \$1;
#X obj 392 323 nbx 5 25 -1e+37 1e+37 0 0 empty empty empty 0 -8 0 10 #e4e4e4 #373737 #373737 0 256;
#X msg 462 362 norm \$1;
#X obj 462 323 tgl 25 0 empty empty empty 17 7 0 10 #e4e4e4 #232323 #373737 0 1;
#X obj 276 289 bng 25 250 50 0 empty empty empty 17 7 0 10 #e4e4e4 #232323 #373737;
#X obj 120 277 *~ 2;
#X connect 0 0 1 0;
#X connect 1 0 2 0;
#X connect 1 0 2 1;
#X connect 1 1 3 0;
#X connect 1 1 3 1;
#X connect 2 0 4 0;
#X connect 3 0 4 1;
#X connect 4 0 5 0;
#X connect 5 0 9 0;
#X connect 6 0 8 0;
#X connect 7 0 6 0;
#X connect 9 0 20 0;
#X connect 10 0 11 1;
#X connect 10 1 19 0;
#X connect 11 0 12 0;
#X connect 13 0 14 0;
#X connect 14 0 11 0;
#X connect 15 0 11 0;
#X connect 16 0 15 0;
#X connect 17 0 11 0;
#X connect 18 0 17 0;
#X connect 19 0 10 0;
#X connect 20 0 11 0;
#X restore 160 386 pd;
#X obj 162 448 nbx 16 46 -1e+37 1e+37 0 0 empty empty empty 0 -8 0 10 #e4e4e4 #373737 #373737 0 256;
#X obj 162 420 * 1000;
#N canvas 0 0 450 250 (subpatch) 0;
#X array arr3 200 float 2;
#X coords 0 1000 200 -50 340 99 1;
#X restore 741 367 graph;
#X obj 162 512 a.rotate arr3 1;
#X obj 332 18 declare -path ../../;
#X obj 26 564 else/pitch2note;
#X connect 3 0 1 0;
#X connect 4 0 14 0;
#X connect 4 1 3 0;
#X connect 5 0 4 0;
#X connect 7 0 27 0;
#X connect 9 0 27 0;
#X connect 10 0 9 0;
#X connect 10 0 13 0;
#X connect 10 0 30 0;
#X connect 11 0 10 0;
#X connect 11 1 10 1;
#X connect 12 0 1 0;
#X connect 13 0 14 1;
#X connect 13 0 47 0;
#X connect 14 0 12 0;
#X connect 14 0 28 0;
#X connect 18 0 29 0;
#X connect 19 0 33 0;
#X connect 21 0 25 0;
#X connect 22 0 24 0;
#X connect 23 0 21 0;
#X connect 23 0 22 0;
#X connect 27 0 8 0;
#X connect 27 0 17 0;
#X connect 27 0 41 0;
#X connect 27 1 8 1;
#X connect 27 2 26 0;
#X connect 29 0 17 1;
#X connect 30 0 32 0;
#X connect 30 1 31 0;
#X connect 31 0 19 0;
#X connect 31 1 18 0;
#X connect 33 0 20 0;
#X connect 34 0 35 0;
#X connect 35 0 33 0;
#X connect 36 0 33 0;
#X connect 37 0 36 0;
#X connect 38 0 33 0;
#X connect 39 0 38 0;
#X connect 41 0 43 0;
#X connect 42 0 45 0;
#X connect 43 0 42 0;
#X connect 47 0 15 0;
