#N canvas 827 239 527 327 12;
#N canvas 0 0 450 250 (subpatch) 0;
#X array S 2048 float 2;
#X coords 0 1 2048 0 152 89 1;
#X restore 692 138 graph;
#N canvas 0 0 450 250 (subpatch) 0;
#X array X 2048 float 2;
#X coords 0 1 2048 0 152 89 1;
#X restore 869 138 graph;
#X obj 238 180 t f f;
#N canvas 0 0 450 250 (subpatch) 0;
#X array Result 2048 float 2;
#X coords 0 1 2048 0 152 89 1;
#X restore 692 283 graph;
#X obj 415 264 tabread X;
#X obj 238 264 tabread S;
#X obj 271 391 /;
#X obj 238 351 t f f;
#X obj 271 420 log;
#X obj 238 457 *;
#X obj 238 497 t f b, f 12;
#X obj 300 530 int;
#X obj 300 569 + 1;
#X obj 238 626 tabwrite Result;
#X obj 43 264 array sum Result;
#X obj 43 101 t b b;
#X obj 402 33 osc~ 440;
#X obj 300 598 % 2048;
#X msg 342 489 0;
#X msg 238 119 2048;
#N canvas 733 172 450 300 FFT 0;
#X obj 402 460 tabwrite~ S;
#X obj 402 87 rfft~, f 14;
#X obj 402 180 sqrt~;
#X obj 481 122 *~;
#X obj 402 122 *~;
#X obj 402 151 *~, f 15;
#X obj 505 252 bng 25 250 50 0 empty empty empty 17 7 0 10 #191919 #e1e1e1 #e1e1e1;
#X obj 579 87 rfft~, f 14;
#X obj 579 180 sqrt~;
#X obj 658 122 *~;
#X obj 579 122 *~;
#X obj 579 151 *~, f 15;
#X obj 657 247 bng 25 250 50 0 empty empty empty 17 7 0 10 #191919 #e1e1e1 #e1e1e1;
#X obj 579 460 tabwrite~ X;
#X obj 402 217 /~ 2048;
#X obj 579 217 /~ 2048;
#X obj 402 252 /~ 2048;
#X obj 579 252 /~ 2048;
#X obj 765 151 metro 1000;
#X obj 765 96 tgl 25 0 empty empty empty 17 7 0 10 #191919 #e1e1e1 #e1e1e1 0 1;
#X obj 402 33 inlet~;
#X obj 579 33 inlet~;
#X obj 770 43 loadbang;
#X obj 840 252 block~ 2048;
#X connect 1 0 4 0;
#X connect 1 0 4 1;
#X connect 1 1 3 0;
#X connect 1 1 3 1;
#X connect 2 0 14 0;
#X connect 3 0 5 1;
#X connect 4 0 5 0;
#X connect 5 0 2 0;
#X connect 6 0 0 0;
#X connect 7 0 10 0;
#X connect 7 0 10 1;
#X connect 7 1 9 0;
#X connect 7 1 9 1;
#X connect 8 0 15 0;
#X connect 9 0 11 1;
#X connect 10 0 11 0;
#X connect 11 0 8 0;
#X connect 12 0 13 0;
#X connect 14 0 16 0;
#X connect 15 0 17 0;
#X connect 16 0 0 0;
#X connect 17 0 13 0;
#X connect 18 0 12 0;
#X connect 18 0 6 0;
#X connect 19 0 18 0;
#X connect 20 0 1 0;
#X connect 21 0 7 0;
#X connect 22 0 19 0;
#X restore 402 138 pd FFT;
#X f 28;
#X obj 238 151 else/loop;
#X obj 166 13 loadbang;
#X obj 166 62 metro 1000;
#X obj 238 13 bng 25 250 50 0 empty empty empty 17 7 0 10 #191919 #e1e1e1 #e1e1e1;
#X text 484 32 Som Base;
#X text 659 76 Som a ser comparado;
#X obj 43 40 bng 42 250 50 0 empty empty empty 17 7 0 10 #e4e4e4 #232323 #373737;
#X obj 43 295 nbx 16 28 -1e+37 1e+37 0 0 empty empty empty 0 -8 0 10 #e4e4e4 #373737 #373737 0 256;
#X obj 573 77 osc~ 440;
#X text 716 23 Kullback-Leibler Divergence;
#X obj 415 293 t f f;
#X obj 238 293 t f f;
#X obj 367 379 expr if($f1 > 0 && $f2 > 0 \, 1 \, 0);
#X connect 2 0 5 0;
#X connect 2 1 4 0;
#X connect 4 0 31 0;
#X connect 5 0 32 0;
#X connect 6 0 8 0;
#X connect 7 0 9 0;
#X connect 7 1 6 0;
#X connect 8 0 9 1;
#X connect 9 0 10 0;
#X connect 10 0 13 0;
#X connect 10 1 11 0;
#X connect 11 0 12 0;
#X connect 12 0 11 1;
#X connect 12 0 17 0;
#X connect 14 0 28 0;
#X connect 15 0 14 0;
#X connect 15 1 19 0;
#X connect 16 0 20 0;
#X connect 17 0 13 1;
#X connect 18 0 11 1;
#X connect 19 0 21 0;
#X connect 21 0 2 0;
#X connect 22 0 23 0;
#X connect 23 0 27 0;
#X connect 24 0 23 0;
#X connect 27 0 15 0;
#X connect 29 0 20 1;
#X connect 31 0 6 1;
#X connect 31 1 33 1;
#X connect 32 0 7 0;
#X connect 32 1 33 0;
