#N canvas 827 239 527 327 12;
#X declare -path ../../;
#X obj 316 53 declare -path ../../;
#X obj 316 139 follower~;
#X msg 316 104 template 440;
#X obj 361 175 else/iterate;
#N canvas 0 0 450 250 (subpatch) 0;
#X array template 2048 float 2;
#X coords 0 0.0004 2048 0 876 161 1;
#X restore 16 468 graph;
#X obj 469 249 else/count 2048;
#X obj 361 204 t f b;
#X obj 500 289 nbx 4 18 -1e+37 1e+37 0 0 empty empty empty 0 -8 0 10 #191919 #e1e1e1 #e1e1e1 0 256;
#X obj 361 384 tabwrite template;
#X obj 740 112 / 2048;
#X msg 739 48 1;
#X obj 740 141 nbx 34 27 -1e+37 1e+37 0 0 empty empty empty 0 -8 0 10 #191919 #e1e1e1 #e1e1e1 0 256;
#X obj 176 265 nbx 19 33 -1e+37 1e+37 0 0 empty empty empty 0 -8 0 10 #e4e4e4 #373737 #373737 0 256;
#X connect 1 1 3 0;
#X connect 2 0 1 0;
#X connect 3 0 6 0;
#X connect 5 0 7 0;
#X connect 5 0 8 1;
#X connect 6 0 8 0;
#X connect 6 0 12 0;
#X connect 6 1 5 0;
#X connect 9 0 11 0;
#X connect 10 0 9 0;
