#N canvas 6 31 951 1011 10;
#X declare -lib timbreIDLib;
#X declare -lib pd-neimog;
#X obj 29 153 tabplay~ synrix;
#X obj 29 8 bng 60 250 50 0 empty empty empty 17 7 0 10 #e4e4e4 #000000 #373737;
#X obj 59 194 dac~;
#X msg 98 8 stop;
#X msg 105 50 set bach;
#X msg 121 80 set synrix;
#N canvas 733 172 450 300 Arrays 0;
#N canvas 0 0 450 250 (subpatch) 0;
#X array synrix 547200 float 2;
#X coords 0 1 547200 -1 422 81 1;
#X restore 653 32 graph;
#X obj 9 69 soundfiler;
#X obj 9 166 soundfiler;
#X msg 9 136 read -resize ./Resources/BWV-1013.wav bach;
#N canvas 0 0 450 250 (subpatch) 0;
#X array bach 695600 float 2;
#X coords 0 1 695600 -1 422 82 1;
#X restore 653 139 graph;
#X obj 117 195 unpack f;
#X obj 420 52 samplerate~;
#X obj 420 23 loadbang;
#X obj 117 265 expr if($f1 != $f2 \, 1 \, 0);
#X obj 117 294 sel 1;
#X obj 117 367 print;
#X msg 117 323 SampleRate is diferent. This will not work;
#X msg 9 39 read -resize ./Resources/syrinx.wav synrix;
#X obj 39 248 print;
#X connect 1 1 5 0;
#X connect 1 1 13 0;
#X connect 2 1 5 0;
#X connect 2 1 13 0;
#X connect 3 0 2 0;
#X connect 5 0 8 0;
#X connect 6 0 8 1;
#X connect 6 0 12 0;
#X connect 6 0 3 0;
#X connect 7 0 6 0;
#X connect 8 0 9 0;
#X connect 9 0 11 0;
#X connect 11 0 10 0;
#X connect 12 0 1 0;
#X restore 338 8 pd Arrays;
#X obj 786 286 tgl 54 0 empty empty empty 17 7 0 10 #e4e4e4 #000000 #373737 0 1;
#X obj 692 8 declare -lib timbreIDLib;
#X obj 239 159 loadbang;
#X obj 167 393 nbx 13 26 -1e+37 1e+37 0 0 empty empty empty 0 -8 0 10 #e4e4e4 #373737 #373737 0 256;
#X obj 29 393 nbx 13 26 -1e+37 1e+37 0 0 empty empty empty 0 -8 0 10 #e4e4e4 #373737 #373737 0 256;
#X obj 430 8 declare -lib pd-neimog;
#N canvas 733 172 450 300 pack 0;
#X obj 14 32 unpack f f;
#X obj 112 83 sel 0;
#X obj 14 163 pack f s f, f 12;
#X msg 112 119 symbol noteoff;
#X msg 226 119 symbol noteon;
#X msg 14 198 \$2 \$1 \$3;
#X obj 14 9 inlet;
#X obj 14 248 outlet;
#X obj 226 163 list;
#X obj 226 192 outlet;
#X connect 0 0 2 0;
#X connect 0 1 1 0;
#X connect 0 1 2 2;
#X connect 1 0 3 0;
#X connect 1 1 4 0;
#X connect 2 0 5 0;
#X connect 3 0 2 1;
#X connect 4 0 2 1;
#X connect 5 0 7 0;
#X connect 5 0 8 0;
#X connect 6 0 0 0;
#X connect 8 0 9 0;
#X restore 430 195 pd pack;
#X obj 430 50 keyboard 22 113 1 5 0 0 empty empty;
#X msg 59 217 start;
#X msg 239 195 score ./Resources/syrinx.txt;
#X msg 636 168 get instruments;
#X obj 636 286 musesampler~ -i 118;
#X obj 636 361 dac~;
#X obj 132 153 s start;
#X obj 106 194 s start;
#X obj 440 426 nbx 29 54 -1e+37 1e+37 0 0 empty empty empty 0 -8 0 10 #e4e4e4 #373737 #373737 0 256;
#X obj 29 484 f;
#X obj 29 426 bng 25 250 50 0 empty empty empty 17 7 0 10 #e4e4e4 #000000 #373737;
#X obj 29 510 print onset;
#N canvas 733 172 450 300 TIME 1;
#X obj 326 225 bang~;
#X obj 326 346 + 64;
#X obj 421 382 int;
#X obj 411 251 r start;
#X msg 413 307 0;
#X obj 421 415 nbx 23 52 -1e+37 1e+37 0 0 empty empty empty 0 -8 0 10 #e4e4e4 #373737 #373737 0 256;
#X msg 326 251 64;
#X obj 326 307 spigot;
#X obj 508 269 tgl 25 0 empty empty empty 17 7 0 10 #e4e4e4 #000000 #373737 0 1;
#X obj 421 483 / 48000;
#X obj 660 448 samplerate~;
#X obj 421 549 outlet;
#X connect 0 0 6 0;
#X connect 1 0 2 0;
#X connect 2 0 1 1;
#X connect 2 0 5 0;
#X connect 3 0 4 0;
#X connect 3 0 8 0;
#X connect 4 0 1 1;
#X connect 5 0 9 0;
#X connect 6 0 7 0;
#X connect 7 0 1 0;
#X connect 8 0 7 1;
#X connect 9 0 11 0;
#X connect 10 0 9 1;
#X restore 440 401 pd TIME;
#X obj 29 361 follower~ -test, f 50;
#N canvas 0 50 450 300 debug 0;
#X obj 22 19 inlet;
#X obj 22 50 route pitch;
#N canvas 0 0 450 250 (subpatch) 0;
#X array 1-\$0 15000 float 2;
#X coords 0 1 15000 -1 465 51 1;
#X restore 382 19 graph;
#N canvas 0 0 450 250 (subpatch) 0;
#X array 2-\$0 15000 float 2;
#X coords 0 1 15000 -1 465 51 1;
#X restore 382 85 graph;
#N canvas 0 0 450 250 (subpatch) 0;
#X array 3-\$0 15000 float 2;
#X coords 0 1 15000 -1 465 51 1;
#X restore 382 155 graph;
#N canvas 0 0 450 250 (subpatch) 0;
#X array 4-\$0 15000 float 2;
#X coords 0 1 15000 -1 465 51 1;
#X restore 382 221 graph;
#N canvas 0 0 450 250 (subpatch) 0;
#X array 5-\$0 15000 float 2;
#X coords 0 1 15000 -1 465 51 1;
#X restore 382 291 graph;
#N canvas 0 0 450 250 (subpatch) 0;
#X array 6-\$0 15000 float 2;
#X coords 0 1 15000 -1 465 51 1;
#X restore 382 363 graph;
#X obj 22 123 route 1 2 3 4 5 6 7, f 32;
#X obj 22 289 tabwrite 1-\$0;
#X obj 22 221 t f b, f 10;
#X obj 129 221 t f b, f 10;
#X obj 129 289 tabwrite 2-\$0;
#X obj 245 221 t f b, f 10;
#X obj 245 289 tabwrite 3-\$0;
#X obj 49 85 print;
#X obj 62 254 count 15000;
#X obj 169 254 count 15000;
#X obj 285 254 count 15000;
#X obj -149 221 nbx 14 37 -1e+37 1e+37 0 0 empty empty empty 0 -8 0 10 #e4e4e4 #373737 #373737 0 256;
#X connect 0 0 1 0;
#X connect 1 0 8 0;
#X connect 1 0 15 0;
#X connect 8 0 10 0;
#X connect 8 0 19 0;
#X connect 8 1 11 0;
#X connect 8 2 13 0;
#X connect 10 0 9 0;
#X connect 10 1 16 0;
#X connect 11 0 12 0;
#X connect 11 1 17 0;
#X connect 13 0 14 0;
#X connect 13 1 18 0;
#X connect 16 0 9 1;
#X connect 17 0 12 1;
#X connect 18 0 14 1;
#X restore 306 393 pd debug;
#X obj 881 142 nbx 11 36 -1e+37 1e+37 0 0 empty empty empty 0 -8 0 10 #e4e4e4 #373737 #373737 0 256;
#X obj 1012 180 loadbang;
#X obj 1012 248 samplerate~;
#X obj 1064 215 bng 25 250 50 0 empty empty empty 17 7 0 10 #e4e4e4 #000000 #373737;
#X obj 1012 274 nbx 4 18 -1e+37 1e+37 0 0 empty empty empty 0 -8 0 10 #e4e4e4 #373737 #373737 0 256;
#X obj 881 210 *;
#X obj 881 236 / 64;
#X obj 881 262 nbx 4 18 -1e+37 1e+37 0 0 empty empty empty 0 -8 0 10 #e4e4e4 #373737 #373737 0 256;
#X msg 884 104 1;
#X msg 912 104 0.5;
#X obj 786 443 switch~ 64;
#X obj 879 310 iterate;
#X obj 879 341 bng 59 250 50 0 empty empty empty 17 7 0 10 #e4e4e4 #000000 #373737;
#X connect 0 0 2 0;
#X connect 0 0 2 1;
#X connect 0 0 27 0 32.................+A........ve.........3O....;
#X connect 0 1 21 0;
#X connect 1 0 0 0;
#X connect 1 0 20 0;
#X connect 3 0 0 0;
#X connect 4 0 0 0;
#X connect 5 0 0 0;
#X connect 7 0 39 0;
#X connect 9 0 16 0;
#X connect 11 0 24 0;
#X connect 13 0 18 0 32.................X....3L....F....NC...fD....;
#X connect 14 0 13 0;
#X connect 15 0 27 0 32.................eA...L9++++W....i++++6K....;
#X connect 16 0 27 0 32.................6....7x++++N....u7+++GK....;
#X connect 17 0 18 0;
#X connect 18 0 19 0;
#X connect 18 0 19 1;
#X connect 18 0 27 0 32.................f....HZ+++OH....h1+++KK....;
#X connect 22 0 23 1;
#X connect 23 0 25 0;
#X connect 24 0 23 0;
#X connect 26 0 22 0;
#X connect 27 0 11 0;
#X connect 27 1 10 0;
#X connect 27 2 28 0;
#X connect 29 0 34 0;
#X connect 30 0 31 0;
#X connect 31 0 33 0;
#X connect 31 0 34 1;
#X connect 32 0 31 0;
#X connect 34 0 35 0;
#X connect 35 0 36 0;
#X connect 36 0 40 0;
#X connect 37 0 29 0;
#X connect 38 0 29 0;
#X connect 40 0 41 0;
#X connect 41 0 39 0;
