#N canvas 827 239 527 327 12;
#X obj 24 194 expr ($f2 * (1 + $f3 * $f1));
#X obj 24 225 nbx 17 31 -1e+37 1e+37 0 0 empty empty empty 0 -8 0 10 #e4e4e4 #373737 #373737 0 256;
#X obj 24 274 * 0.6;
#X obj 24 335 nbx 30 35 -1e+37 1e+37 0 0 empty empty empty 0 -8 0 10 #e4e4e4 #373737 #373737 0 256;
#X msg 166 122 0.3;
#X msg 95 97 0.596745;
#X obj 24 306 !/ 60;
#X obj 44 144 nbx 9 21 -1e+37 1e+37 0 0 empty empty empty 0 -8 0 10 #e4e4e4 #373737 #373737 0 256;
#X obj 257 61 nbx 4 18 -1e+37 1e+37 0 0 empty empty empty 0 -8 0 10 #e4e4e4 #373737 #373737 0 256;
#X obj 257 88 tgl 25 0 empty empty empty 17 7 0 10 #e4e4e4 #000000 #373737 0 1;
#X obj 27 -15 vsl 17 128 -2 2 0 0 empty empty empty 0 -9 0 10 #e4e4e4 #000000 #373737 0 1;
#X msg 74 4 -0.018083;
#X obj 362 4 vsl 17 128 0 127 0 0 empty empty empty 0 -9 0 10 #e4e4e4 #000000 #373737 0 1;
#X obj 357 174 t b f;
#X obj 366 252 nbx 18 42 -1e+37 1e+37 0 0 empty empty empty 0 -8 0 10 #e4e4e4 #373737 #373737 0 256;
#X connect 0 0 1 0;
#X connect 1 0 2 0;
#X connect 2 0 6 0;
#X connect 4 0 0 2;
#X connect 5 0 0 1;
#X connect 6 0 3 0;
#X connect 8 0 9 0;
#X connect 10 0 7 0;
#X connect 10 0 0 0;
#X connect 11 0 10 0;
#X connect 12 0 13 0;
#X connect 13 0 0 0;
#X connect 13 1 14 0;
#X connect 13 1 0 2;
