#N canvas 963 23 951 1016 10;
#X obj 13 224 nbx 3 24 -1e+37 1e+37 0 0 empty empty empty 0 -9 0 20 #fcfcfc #ff0400 #ff0400 0 256;
#X obj 13 77 readsf~;
#X msg 13 18 open audio.wav \, 1;
#X msg 43 171 score score.txt \, start;
#X obj 186 84 metro 1;
#X obj 186 106 int;
#X obj 186 128 + 1;
#X obj 186 150 nbx 5 16 -1e+37 1e+37 0 0 empty empty empty 0 -9 0 10 #fcfcfc #000000 #000000 0 256;
#X obj 186 59 bng 18 250 50 0 empty empty empty 0 -9 0 10 #fcfcfc #000000 #000000;
#X obj 186 171 * 0.001;
#X msg 28 45 0;
#X obj 125 17 cnv 18 10 10 empty empty Syrinx 20 12 0 18 #ffffff #000000 0;
#X obj 13 200 o.scofo~, f 31;
#X obj 196 226 nbx 5 16 -1e+37 1e+37 0 0 empty empty empty 0 -9 0 10 #fcfcfc #000000 #000000 0 256;
#X obj 13 253 list, f 29;
#X obj 13 275 print;
#X msg 65 76 \; pd dsp \$1;
#X obj 65 53 tgl 18 0 empty empty empty 0 -9 0 10 #fcfcfc #000000 #000000 0 1;
#X obj 13 99 *~ 6;
#X connect 0 0 14 0;
#X connect 1 0 18 0;
#X connect 2 0 1 0;
#X connect 2 0 8 0;
#X connect 3 0 12 0;
#X connect 4 0 5 0;
#X connect 5 0 6 0;
#X connect 6 0 5 1;
#X connect 6 0 7 0;
#X connect 7 0 9 0;
#X connect 8 0 4 0;
#X connect 10 0 1 0;
#X connect 12 0 0 0;
#X connect 12 1 13 0;
#X connect 13 0 14 1;
#X connect 14 0 15 0;
#X connect 17 0 16 0;
#X connect 18 0 12 0;
