#N canvas 6 28 948 1012 10;
#X obj 10 195 antescofo~/antescofo~;
#X msg 106 21 score Test1.txt;
#X msg 101 117 verbosity \$1;
#X obj 101 94 nbx 5 16 -1e+37 1e+37 0 0 empty empty empty 0 -9 0 10 #fcfcfc #000000 #000000 0 256;
#X obj 12 47 readsf~;
#X obj 27 92 dac~;
#X msg 12 7 open Test1.wav \, 1;
#X obj 10 217 nbx 5 16 -1e+37 1e+37 0 0 empty empty empty 0 -9 0 10 #fcfcfc #000000 #000000 0 256;
#X msg 141 141 start;
#X obj 235 151 switch~;
#X obj 238 80 else/loop 16;
#X obj 238 19 bng 18 250 50 0 empty empty empty 0 -9 0 10 #fcfcfc #000000 #000000;
#X obj 313 104 bng 18 250 50 0 empty empty empty 0 -9 0 10 #fcfcfc #000000 #000000;
#X connect 0 0 7 0;
#X connect 1 0 0 0;
#X connect 2 0 0 0;
#X connect 3 0 2 0;
#X connect 4 0 0 0;
#X connect 4 0 5 0;
#X connect 4 0 5 1;
#X connect 6 0 4 0;
#X connect 8 0 0 0;
#X connect 10 0 9 0;
#X connect 11 0 10 0;
#X connect 12 0 9 0;
