#N canvas 6 31 951 1011 10;
#X obj -192 -74 bng 60 250 50 0 empty empty empty 17 7 0 10 #e4e4e4 #000000 #373737;
#X obj -192 -106 loadbang;
#X obj -192 18 t b b b b;
#X obj -16 18 nbx 15 64 -1e+37 1e+37 0 0 empty empty empty 0 -8 0 10 #e4e4e4 #373737 #373737 0 256;
#X msg -27 193 read -resize Test\$1.wav audio;
#X obj -27 108 f;
#X obj 85 464 nbx 13 26 -1e+37 1e+37 0 0 empty empty empty 0 -8 0 10 #e4e4e4 #373737 #373737 0 256;
#X obj -192 464 nbx 13 26 -1e+37 1e+37 0 0 empty empty empty 0 -8 0 10 #e4e4e4 #373737 #373737 0 256;
#X obj -192 434 follower~ -w 4096 -o 4, f 50;
#X obj -192 193 tabplay~ audio;
#N canvas 0 0 450 250 (subpatch) 0;
#X array audio 531072 float 2;
#X coords 0 1 531072 -1 336 111 1;
#X restore 183 18 graph;
#X obj -27 222 soundfiler;
#X obj -150 242 dac~;
#X obj -27 137 t f f, f 16;
#X msg 183 193 score Test\$1.txt;
#X obj 183 289 s follower;
#X obj -150 369 r follower;
#X obj -161 108 s follower;
#X msg -161 63 start;
#X obj 293 355 antescofo~;
#X obj 340 289 r follower;
#X obj 293 464 nbx 12 36 -1e+37 1e+37 0 0 empty empty empty 0 -8 0 10 #e4e4e4 #373737 #373737 0 256;
#X obj 311 391 nbx 13 34 -1e+37 1e+37 0 0 empty empty empty 0 -8 0 10 #e4e4e4 #373737 #373737 0 256;
#X obj -16 -74 loadbang;
#X msg -14 -34 1;
#X msg -77 369 set threshold -50;
#X connect 0 0 2 0;
#X connect 2 0 9 0;
#X connect 2 2 18 0;
#X connect 2 3 5 0;
#X connect 3 0 5 1;
#X connect 4 0 11 0;
#X connect 5 0 13 0;
#X connect 8 0 7 0;
#X connect 8 1 6 0;
#X connect 9 0 8 0;
#X connect 9 0 12 0;
#X connect 9 0 12 1;
#X connect 9 0 19 0 32.................4A...Td...Pd....kG...3H....;
#X connect 13 0 4 0;
#X connect 13 1 14 0;
#X connect 14 0 15 0;
#X connect 14 0 19 0 32.................0....3F...PM....tA...3H....;
#X connect 16 0 8 0;
#X connect 18 0 17 0;
#X connect 19 0 21 0;
#X connect 19 1 22 0;
#X connect 20 0 19 0;
#X connect 23 0 24 0;
#X connect 24 0 3 0;
#X connect 25 0 8 0;
