#N canvas 6 28 951 1018 10;
#X declare -lib timbreIDLib;
#X obj -186 -1 bng 60 250 50 0 empty again empty 17 7 0 10 #e4e4e4 #000000 #373737;
#X obj -67 64 f;
#X obj -9 350 nbx 13 26 -1e+37 1e+37 0 0 empty empty empty 0 -8 0 10 #e4e4e4 #373737 #373737 0 256;
#X obj -186 350 nbx 13 26 -1e+37 1e+37 0 0 empty empty empty 0 -8 0 10 #e4e4e4 #373737 #373737 0 256;
#X obj -186 175 tabplay~ audio;
#X obj -67 175 soundfiler;
#X obj -128 214 dac~;
#X obj -67 91 t f f, f 16;
#X obj -144 247 r follower;
#N canvas 0 50 450 300 set 0;
#X msg 69 164 set threshold -90;
#X msg 99 194 set harmonics 15;
#X obj 69 495 outlet;
#X msg 310 331 set time coupling \$1;
#X msg 516 331 set time accum \$1;
#X obj 779 204 bng 60 250 50 0 again empty empty 17 7 0 10 #e4e4e4 #000000 #373737;
#X obj 907 222 inlet;
#X obj 907 276 nbx 22 51 -1e+37 1e+37 0 0 empty empty empty 0 -8 0 10 #e4e4e4 #373737 #373737 0 256;
#X obj 310 248 nbx 11 43 -1e+37 1e+37 0 0 empty empty empty 0 -8 0 10 #e4e4e4 #373737 #373737 0 256;
#X obj 516 248 nbx 11 43 -1e+37 1e+37 0 0 empty empty empty 0 -8 0 10 #e4e4e4 #373737 #373737 0 256;
#X obj 381 457 print;
#X connect 0 0 2 0;
#X connect 1 0 2 0;
#X connect 3 0 2 0;
#X connect 3 0 10 0;
#X connect 4 0 2 0;
#X connect 4 0 10 0;
#X connect 6 0 7 0;
#X connect 8 0 3 0;
#X connect 9 0 4 0;
#X restore -67 247 pd set values;
#X obj -186 423 f;
#X obj -186 389 t b f;
#N canvas 0 0 450 250 (subpatch) 0;
#X array follower-time 16 float 2;
#X coords 0 150 16 80 281 73 1;
#X restore 143 350 graph;
#X msg -236 175 start;
#X obj -186 461 tabwrite follower-time;
#X obj -186 311 follower~, f 33;
#X obj -186 117 t b b;
#X msg -67 133 read -resize Test\$1.wav audio;
#X obj 137 188 s follower;
#X obj 11 -92 array define audio;
#X obj -67 19 bng 25 250 50 0 empty empty empty 17 7 0 10 #e4e4e4 #000000 #373737;
#X msg 137 133 score Test\$1.txt;
#X obj -67 -92 r loadbang;
#X obj -67 -26 t b b b;
#X obj -117 -92 bng 42 250 50 0 empty empty empty 17 7 0 10 #e4e4e4 #000000 #373737;
#X obj 11 -26 nbx 6 34 -1e+37 1e+37 0 0 empty empty empty 0 -8 0 10 #e4e4e4 #373737 #373737 0 256;
#X obj -38 24 f 1;
#X obj 47 81 nbx 4 18 -1e+37 1e+37 0 0 empty empty empty 0 -8 0 10 #e4e4e4 #373737 #373737 0 256;
#X obj 250 -92 declare -lib timbreIDLib;
#X obj 276 217 nbx 17 30 -1e+37 1e+37 0 0 empty empty empty 0 -8 0 10 #e4e4e4 #373737 #373737 0 256;
#X obj 276 188 specFlatness~ 1024;
#X obj 330 88 bng 25 250 50 0 empty empty empty 17 7 0 10 #e4e4e4 #000000 #373737;
#X obj 366 8 metro 300;
#X obj 365 -52 tgl 25 0 empty empty empty 17 7 0 10 #e4e4e4 #000000 #373737 0 1;
#X obj 276 256 print;
#X obj 62 254 adc~ 1;
#X connect 0 0 16 0;
#X connect 1 0 7 0;
#X connect 2 0 10 1;
#X connect 3 0 11 0;
#X connect 4 0 6 0;
#X connect 4 0 6 1;
#X connect 4 0 15 0;
#X connect 4 0 30 0;
#X connect 7 0 17 0;
#X connect 7 1 21 0;
#X connect 8 0 15 0;
#X connect 9 0 15 0;
#X connect 10 0 14 0;
#X connect 11 0 10 0;
#X connect 11 1 14 1;
#X connect 13 0 15 0;
#X connect 15 0 3 0;
#X connect 15 1 2 0;
#X connect 16 0 4 0;
#X connect 16 1 13 0;
#X connect 17 0 5 0;
#X connect 20 0 1 0;
#X connect 21 0 18 0;
#X connect 22 0 23 0;
#X connect 23 0 0 0;
#X connect 23 1 20 0;
#X connect 23 2 26 0;
#X connect 24 0 23 0;
#X connect 25 0 26 1;
#X connect 26 0 1 1;
#X connect 26 0 27 0;
#X connect 29 0 34 0;
#X connect 30 0 29 0;
#X connect 31 0 30 0;
#X connect 32 0 31 0;
#X connect 33 0 32 0;
#X connect 35 0 15 0;
