#N canvas 963 28 951 1012 10;
#X obj -186 -61 bng 60 250 50 0 empty again empty 17 7 0 10 #e4e4e4 #000000 #373737;
#X obj -186 13 t b b b b;
#X obj -10 -9 nbx 15 64 -1e+37 1e+37 0 0 empty empty empty 0 -8 0 10 #e4e4e4 #373737 #373737 0 256;
#X msg -21 166 read -resize Test\$1.wav audio;
#X obj -21 81 f;
#X obj 90 344 nbx 13 26 -1e+37 1e+37 0 0 empty empty empty 0 -8 0 10 #e4e4e4 #373737 #373737 0 256;
#X obj -186 344 nbx 13 26 -1e+37 1e+37 0 0 empty empty empty 0 -8 0 10 #e4e4e4 #373737 #373737 0 256;
#X obj -186 138 tabplay~ audio;
#N canvas 0 0 450 250 (subpatch) 0;
#X array audio 531072 float 2;
#X coords 0 1 531072 -1 336 111 1;
#X restore 189 -9 graph;
#X obj -21 215 soundfiler;
#X obj -144 215 dac~;
#X obj -21 110 t f f, f 16;
#X msg 189 166 score Test\$1.txt;
#X obj 189 262 s follower;
#X obj -144 262 r follower;
#X obj -155 81 s follower;
#X msg -155 36 start;
#X obj 295 232 antescofo~;
#X obj 342 166 r follower;
#X obj 362 377 nbx 12 36 -1e+37 1e+37 0 0 empty empty empty 0 -8 0 10 #e4e4e4 #373737 #373737 0 256;
#X obj 493 377 nbx 13 34 -1e+37 1e+37 0 0 empty empty empty 0 -8 0 10 #e4e4e4 #373737 #373737 0 256;
#X obj -10 -101 loadbang;
#X msg -8 -61 1;
#X obj -49 -9 bng 25 250 50 0 empty empty empty 17 7 0 10 #e4e4e4 #000000 #373737;
#N canvas 0 50 450 300 set 0;
#X msg 69 164 set threshold -90;
#X msg 99 194 set harmonics 15;
#X obj 69 495 outlet;
#X msg 310 331 set time coupling \$1;
#X msg 516 331 set time accum \$1;
#X obj 779 204 bng 60 250 50 0 again empty empty 17 7 0 10 #e4e4e4 #000000 #373737;
#X obj 907 222 inlet;
#X obj 907 276 nbx 22 51 -1e+37 1e+37 0 0 empty empty empty 0 -8 0 10 #e4e4e4 #373737 #373737 0 256;
#X obj 299 37 r div;
#X obj 299 78 t f f;
#X obj 399 44 loadbang;
#X obj 310 179 expr if($f1 < $f2 \, $f3 \, $f4);
#X msg 399 73 0.4;
#X obj 516 224 r coup;
#X connect 0 0 2 0;
#X connect 1 0 2 0;
#X connect 3 0 2 0;
#X connect 4 0 2 0;
#X connect 6 0 7 0;
#X connect 8 0 9 0;
#X connect 9 0 11 1;
#X connect 9 1 11 0;
#X connect 10 0 12 0;
#X connect 12 0 11 2;
#X connect 13 0 4 0;
#X restore -67 262 pd set values;
#X msg 54 262 set kappa 0.58;
#X obj -99 -67 loadbang;
#X obj -186 437 f;
#X obj -186 377 t b f;
#N canvas 0 0 450 250 (subpatch) 0;
#X array follower-time 16 float 2;
#X coords 0 150 16 80 281 73 1;
#X restore 594 -13 graph;
#N canvas 0 0 450 250 (subpatch) 0;
#X array antescofo-time 16 float 2;
#X coords 0 150 16 80 281 73 1;
#X restore 594 78 graph;
#X obj 362 511 f;
#X obj 362 424 t b f;
#X msg 344 194 verbosity 0;
#X msg -263 241 start;
#X obj -226 101 bng 25 250 50 0 empty empty empty 17 7 0 10 #e4e4e4 #000000 #373737;
#X obj 362 537 tabwrite antescofo-time;
#X obj -186 463 tabwrite follower-time;
#X msg 232 344 \; pd quit;
#X obj -176 -109 loadbang;
#X msg 525 272 \; pd dsp 1;
#X obj 525 203 loadbang;
#X obj -186 314 follower~, f 50;
#X connect 0 0 1 0;
#X connect 1 0 7 0;
#X connect 1 2 16 0;
#X connect 2 0 4 1;
#X connect 3 0 9 0;
#X connect 4 0 11 0;
#X connect 5 0 24 0;
#X connect 5 0 27 1;
#X connect 6 0 28 0;
#X connect 7 0 10 0;
#X connect 7 0 10 1;
#X connect 7 0 17 0;
#X connect 7 0 42 0;
#X connect 7 1 38 0;
#X connect 11 0 3 0;
#X connect 11 1 12 0;
#X connect 12 0 13 0;
#X connect 12 0 17 0;
#X connect 14 0 42 0;
#X connect 16 0 15 0;
#X connect 17 0 19 0;
#X connect 17 1 20 0;
#X connect 18 0 17 0;
#X connect 19 0 32 0;
#X connect 20 0 31 1;
#X connect 21 0 22 0;
#X connect 22 0 2 0;
#X connect 23 0 4 0;
#X connect 24 0 42 0;
#X connect 25 0 42 0;
#X connect 26 0 23 0;
#X connect 27 0 37 0;
#X connect 28 0 27 0;
#X connect 28 1 37 1;
#X connect 31 0 36 0;
#X connect 32 0 31 0;
#X connect 32 1 36 1;
#X connect 33 0 17 0;
#X connect 34 0 42 0;
#X connect 35 0 7 0;
#X connect 39 0 0 0;
#X connect 41 0 40 0;
#X connect 42 0 6 0;
#X connect 42 1 5 0;
