#N canvas 6 31 951 1011 10;
#X obj -192 -34 bng 60 250 50 0 empty again empty 17 7 0 10 #e4e4e4 #000000 #373737;
#X obj -192 40 t b b b b;
#X obj -16 18 nbx 15 64 -1e+37 1e+37 0 0 empty empty empty 0 -8 0 10 #e4e4e4 #373737 #373737 0 256;
#X msg -27 193 read -resize Test\$1.wav audio;
#X obj -27 108 f;
#X obj 84 464 nbx 13 26 -1e+37 1e+37 0 0 empty empty empty 0 -8 0 10 #e4e4e4 #373737 #373737 0 256;
#X obj -192 464 nbx 13 26 -1e+37 1e+37 0 0 empty empty empty 0 -8 0 10 #e4e4e4 #373737 #373737 0 256;
#X obj -192 193 tabplay~ audio;
#N canvas 0 0 450 250 (subpatch) 0;
#X array audio 531072 float 2;
#X coords 0 1 531072 -1 336 111 1;
#X restore 183 18 graph;
#X obj -27 222 soundfiler;
#X obj -150 242 dac~;
#X obj -27 137 t f f, f 16;
#X msg 183 193 score Test\$1.txt;
#X obj 183 289 s follower;
#X obj -150 369 r follower;
#X obj -161 108 s follower;
#X msg -161 63 start;
#X obj 293 355 antescofo~;
#X obj 340 289 r follower;
#X obj 293 464 nbx 12 36 -1e+37 1e+37 0 0 empty empty empty 0 -8 0 10 #e4e4e4 #373737 #373737 0 256;
#X obj 311 391 nbx 13 34 -1e+37 1e+37 0 0 empty empty empty 0 -8 0 10 #e4e4e4 #373737 #373737 0 256;
#X obj -16 -74 loadbang;
#X msg -14 -34 1;
#X msg 503 294 verbosity 1;
#X obj -55 18 bng 25 250 50 0 empty empty empty 17 7 0 10 #e4e4e4 #000000 #373737;
#N canvas 0 50 450 300 set 0;
#X msg 69 164 set threshold -90;
#X msg 99 194 set harmonics 15;
#X obj 69 367 outlet;
#X msg 369 194 set time coupling \$1;
#X obj 374 117 hsl 128 17 0.1 1 0 0 empty empty empty -2 -8 0 10 #e4e4e4 #000000 #373737 0 1;
#X obj 528 117 hsl 128 17 0.1 1 0 0 empty empty empty -2 -8 0 10 #e4e4e4 #000000 #373737 0 1;
#X msg 523 194 set time accum \$1;
#X obj 779 204 bng 60 250 50 0 again empty empty 17 7 0 10 #e4e4e4 #000000 #373737;
#X obj 907 222 inlet;
#X obj 907 276 nbx 22 51 -1e+37 1e+37 0 0 empty empty empty 0 -8 0 10 #e4e4e4 #373737 #373737 0 256;
#X connect 0 0 2 0;
#X connect 1 0 2 0;
#X connect 3 0 2 0;
#X connect 4 0 3 0;
#X connect 5 0 6 0;
#X connect 6 0 2 0;
#X connect 8 0 9 0;
#X restore -73 369 pd set values;
#X obj -192 434 follower~, f 50;
#X msg 48 369 set kappa 0.58;
#X obj -105 -40 loadbang;
#X connect 0 0 1 0;
#X connect 1 0 7 0;
#X connect 1 2 16 0;
#X connect 2 0 4 1;
#X connect 3 0 9 0;
#X connect 4 0 11 0;
#X connect 5 0 25 0;
#X connect 7 0 10 0;
#X connect 7 0 10 1;
#X connect 7 0 17 0 32.................4A...Td...Pd....kG...3H....;
#X connect 7 0 26 0;
#X connect 11 0 3 0;
#X connect 11 1 12 0;
#X connect 12 0 13 0;
#X connect 12 0 17 0 32.................0....3F...PM....tA...3H....;
#X connect 14 0 26 0;
#X connect 16 0 15 0;
#X connect 17 0 19 0;
#X connect 17 1 20 0;
#X connect 18 0 17 0;
#X connect 21 0 22 0;
#X connect 22 0 2 0;
#X connect 23 0 17 0;
#X connect 24 0 4 0;
#X connect 25 0 26 0;
#X connect 26 0 6 0;
#X connect 26 1 5 0;
#X connect 27 0 26 0;
#X connect 28 0 24 0;
