#N canvas 963 29 951 1010 10;
#X obj 19 187 o.scofo~;
#X obj 19 59 readsf~;
#X msg 19 15 open Test1.wav \, 1;
#X obj 29 90 dac~;
#X obj 19 209 nbx 5 16 -1e+37 1e+37 0 0 empty empty empty 0 -9 0 10 #fcfcfc #000000 #000000 0 256;
#X msg 54 126 start;
#X obj 19 230 print;
#X obj 108 344 switch~;
#X obj 108 264 else/loop 64;
#X obj 108 226 bng 18 250 50 0 empty empty empty 0 -9 0 10 #fcfcfc #000000 #000000;
#X obj 6 281 loadbang;
#X msg 6 303 \; pd dsp 1;
#X obj 108 286 b;
#X obj 136 287 tgl 18 0 empty empty empty 0 -9 0 10 #fcfcfc #000000 #000000 0 1;
#X obj 170 75 soundfiler;
#N canvas 0 50 450 250 (subpatch) 0;
#X array sound 531072 float 2;
#X coords 0 1 531072 -1 237 44 1;
#X restore 211 177 graph;
#X msg 170 49 read -resize Test1.wav sound;
#X obj 188 263 array max sound;
#X obj 188 233 bng 18 250 50 0 empty empty empty 0 -9 0 10 #fcfcfc #000000 #000000;
#X obj 188 306 print;
#X obj 287 233 bng 18 250 50 0 empty empty empty 0 -9 0 10 #fcfcfc #000000 #000000;
#X obj 287 306 print;
#X obj 287 263 array min sound;
#X obj 170 20 loadbang;
#X msg 96 126 score Test1.txt;
#X msg 102 152 follow 1;
#X connect 0 0 4 0;
#X connect 1 0 3 0;
#X connect 1 0 3 1;
#X connect 1 0 0 0;
#X connect 2 0 1 0;
#X connect 4 0 6 0;
#X connect 5 0 0 0;
#X connect 8 0 12 0;
#X connect 9 0 8 0;
#X connect 10 0 11 0;
#X connect 12 0 7 0;
#X connect 13 0 7 0;
#X connect 16 0 14 0;
#X connect 17 0 19 0;
#X connect 18 0 17 0;
#X connect 20 0 22 0;
#X connect 22 0 21 0;
#X connect 23 0 16 0;
#X connect 24 0 0 0;
#X connect 25 0 0 0;
