#N canvas 963 23 951 1016 10;
#X obj 3 50 readsf~;
#X obj 41 86 dac~;
#X obj 3 249 nbx 5 16 -1e+37 1e+37 0 0 empty empty empty 0 -9 0 10 #fcfcfc #000000 #000000 0 256;
#X msg 12 198 start;
#X obj 70 248 nbx 5 16 -1e+37 1e+37 0 0 empty empty empty 0 -9 0 10 #fcfcfc #000000 #000000 0 256;
#X obj 71 86 else/vu~;
#X obj 72 110 vu 15 80 empty empty -1 -9 0 10 #404040 #000000 0 0;
#X obj 3 227 o.scofo~ -kappa, f 23;
#X obj 3 270 pack f f f, f 23;
#X msg 3 6 open Test1.wav \, 1;
#X msg 54 198 score Test1.txt;
#X msg 23 27 open Test0.wav \, 1;
#X msg 155 198 score Test0.txt;
#X obj 3 292 print;
#X obj 3 121 *~ 4;
#X connect 0 0 1 0;
#X connect 0 0 1 1;
#X connect 0 0 5 0;
#X connect 0 0 14 0;
#X connect 2 0 8 0;
#X connect 3 0 7 0;
#X connect 4 0 8 1;
#X connect 5 0 6 0;
#X connect 7 0 2 0;
#X connect 7 1 4 0;
#X connect 7 2 8 2;
#X connect 8 0 13 0;
#X connect 9 0 0 0;
#X connect 10 0 7 0;
#X connect 11 0 0 0;
#X connect 12 0 7 0;
#X connect 14 0 7 0;
