#N canvas 6 28 948 1012 10;
#X obj 149 192 tabplay~ audio;
#X obj 207 231 dac~;
#X obj 191 264 r follower;
#X obj 149 85 bng 42 250 50 0 empty empty empty 17 7 0 10 #e4e4e4 #000000 #373737;
#X obj 218 134 bng 25 250 50 0 empty empty empty 17 7 0 10 #e4e4e4 #000000 #373737;
#X msg 5 192 follow 1;
#X obj 149 134 t b b b;
#X msg 73 192 start;
#X obj 149 13 key;
#X obj 149 39 nbx 4 18 -1e+37 1e+37 0 0 empty empty empty 0 -8 0 10 #e4e4e4 #373737 #373737 0 256;
#X obj 149 64 sel 32;
#X obj 248 204 switch~;
#X obj 248 60 bng 67 250 50 0 empty empty empty 17 7 0 10 #e4e4e4 #000000 #373737;
#X obj 248 37 sel 113;
#X obj 248 160 bng 25 250 50 0 empty empty empty 17 7 0 10 #e4e4e4 #000000 #373737;
#X obj 329 134 tgl 57 0 empty empty empty 17 7 0 10 #e4e4e4 #000000 #373737 0 1;
#X obj 248 134 else/loop 16;
#X obj 6 397 nbx 2 24 -1e+37 1e+37 0 0 empty empty empty 0 -9 0 24 #fcfcfc #000000 #000000 0 256;
#X obj 32 13 array define audio;
#X msg 6 426 read -resize Test\$1.wav audio;
#X obj 6 449 soundfiler;
#X obj 6 334 loadbang;
#X msg 287 265 score;
#X obj 67 397 s follower;
#X msg 191 286 score Test\$1.txt;
#X obj 149 351 nbx 2 24 -1e+37 1e+37 0 0 empty empty empty 0 -9 0 24 #fcfcfc #000000 #000000 0 256;
#X obj 149 380 print;
#X obj 149 326 o.scofo~, f 33;
#X msg 329 228 \; pd dsp \$1;
#X obj 395 173 tgl 18 0 empty empty empty 0 -9 0 10 #fcfcfc #000000 #000000 0 1;
#X msg 6 356 1;
#X connect 0 0 1 0;
#X connect 0 0 1 1;
#X connect 0 0 27 0;
#X connect 2 0 24 0;
#X connect 3 0 6 0;
#X connect 4 0 0 0;
#X connect 5 0 27 0;
#X connect 6 0 0 0;
#X connect 6 1 5 0;
#X connect 6 2 7 0;
#X connect 7 0 27 0;
#X connect 8 0 9 0;
#X connect 8 0 13 0;
#X connect 9 0 10 0;
#X connect 10 0 3 0;
#X connect 12 0 16 0;
#X connect 13 0 12 0;
#X connect 14 0 11 0;
#X connect 15 0 11 0;
#X connect 15 0 28 0;
#X connect 16 0 14 0;
#X connect 17 0 19 0;
#X connect 19 0 20 0;
#X connect 21 0 30 0;
#X connect 24 0 27 0;
#X connect 25 0 26 0;
#X connect 27 0 25 0;
#X connect 29 0 28 0;
#X connect 30 0 17 0;
#X connect 30 0 23 0;
