#N canvas 6 28 951 1018 10;
#X declare -lib timbreIDLib;
#X declare -lib pd-neimog;
#X obj 95 168 bng 60 250 50 0 empty again empty 17 7 0 10 #e4e4e4 #000000 #373737;
#X obj 214 233 f;
#X obj 269 559 nbx 13 26 -1e+37 1e+37 0 0 empty empty empty 0 -8 0 10 #e4e4e4 #373737 #373737 0 256;
#X obj 95 559 nbx 13 26 -1e+37 1e+37 0 0 empty empty empty 0 -8 0 10 #e4e4e4 #373737 #373737 0 256;
#X obj 95 344 tabplay~ audio;
#X obj 214 344 soundfiler;
#X obj 153 383 dac~;
#X obj 214 260 t f f, f 16;
#X obj 137 416 r follower;
#N canvas 0 50 450 300 set 0;
#X msg 69 164 set threshold -90;
#X msg 99 194 set harmonics 15;
#X obj 69 495 outlet;
#X msg 310 331 set time coupling \$1;
#X msg 516 331 set time accum \$1;
#X obj 779 204 bng 60 250 50 0 again empty empty 17 7 0 10 #e4e4e4 #000000 #373737;
#X obj 907 222 inlet;
#X obj 907 276 nbx 22 51 -1e+37 1e+37 0 0 empty empty empty 0 -8 0 10 #e4e4e4 #373737 #373737 0 256;
#X obj 310 248 nbx 11 43 -1e+37 1e+37 0 0 empty empty empty 0 -8 0 10 #e4e4e4 #373737 #373737 0 256;
#X obj 516 248 nbx 11 43 -1e+37 1e+37 0 0 empty empty empty 0 -8 0 10 #e4e4e4 #373737 #373737 0 256;
#X obj 381 457 print;
#X connect 0 0 2 0;
#X connect 1 0 2 0;
#X connect 3 0 2 0;
#X connect 3 0 10 0;
#X connect 4 0 2 0;
#X connect 4 0 10 0;
#X connect 6 0 7 0;
#X connect 8 0 3 0;
#X connect 9 0 4 0;
#X restore 214 416 pd set values;
#X obj 95 632 f;
#X obj 95 598 t b f;
#N canvas 0 0 450 250 (subpatch) 0;
#X array follower-time 16 float 2;
#X coords 0 150 16 80 281 73 1;
#X restore 664 564 graph;
#X obj 95 670 tabwrite follower-time;
#X msg 214 302 read -resize Test\$1.wav audio;
#X obj 418 357 s follower;
#X obj 292 77 array define audio;
#X obj 214 188 bng 25 250 50 0 empty empty empty 17 7 0 10 #e4e4e4 #000000 #373737;
#X msg 418 302 score Test\$1.txt;
#X obj 214 77 r loadbang;
#X obj 214 143 t b b b;
#X obj 164 77 bng 42 250 50 0 empty empty empty 17 7 0 10 #e4e4e4 #000000 #373737;
#X obj 363 129 nbx 6 34 -1e+37 1e+37 0 0 empty empty empty 0 -8 0 10 #e4e4e4 #373737 #373737 0 256;
#X obj 243 193 f 1;
#X obj 328 260 nbx 4 18 -1e+37 1e+37 0 0 empty empty empty 0 -8 0 10 #e4e4e4 #373737 #373737 0 256;
#X obj 531 77 declare -lib timbreIDLib;
#X msg 419 260 0;
#X obj 164 286 bng 25 250 50 0 empty empty empty 17 7 0 10 #e4e4e4 #000000 #373737;
#X obj 503 357 print;
#X obj 324 377 print;
#X msg -49 344 follow 1;
#X obj 95 286 t b b b;
#X msg 19 344 start;
#X msg 396 418 set threshold -30;
#X obj 95 475 o.scofo~ -kappa, f 33;
#X obj 419 559 nbx 4 18 -1e+37 1e+37 0 0 empty empty empty 0 -8 0 10 #e4e4e4 #373737 #373737 0 256;
#X obj 379 639 pack f f f;
#X obj 379 668 print;
#X obj 214 373 nbx 7 18 -1e+37 1e+37 0 0 empty empty empty 0 -8 0 10 #191919 #e1e1e1 #e1e1e1 0 256;
#X obj 696 77 declare -lib pd-neimog;
#N canvas 0 0 450 250 (subpatch) 0;
#X array eta0.2 15 float 2;
#X coords 0 170 15 100 281 73 1;
#X restore 664 162 graph;
#X obj 488 559 a.rotate eta0.2;
#X obj 269 143 bng 25 250 50 0 empty empty empty 17 7 0 10 #e4e4e4 #000000 #373737;
#X obj 304 100 loadbang;
#X obj 34 22 key;
#X obj 34 48 nbx 4 18 -1e+37 1e+37 0 0 empty empty empty 0 -8 0 10 #e4e4e4 #373737 #373737 0 256;
#X obj 34 73 sel 32;
#X connect 0 0 31 0;
#X connect 1 0 7 0;
#X connect 2 0 10 1;
#X connect 2 0 36 1;
#X connect 3 0 11 0;
#X connect 3 0 36 0;
#X connect 4 0 6 0;
#X connect 4 0 6 1;
#X connect 4 0 34 0;
#X connect 5 0 38 0;
#X connect 5 1 29 0;
#X connect 7 0 14 0;
#X connect 7 1 18 0;
#X connect 8 0 34 0;
#X connect 9 0 34 0;
#X connect 10 0 13 0;
#X connect 11 0 10 0;
#X connect 11 1 13 1;
#X connect 14 0 5 0;
#X connect 17 0 1 0;
#X connect 18 0 15 0;
#X connect 18 0 28 0;
#X connect 19 0 20 0;
#X connect 20 0 0 0;
#X connect 20 1 17 0;
#X connect 20 2 23 0;
#X connect 21 0 20 0;
#X connect 22 0 23 1;
#X connect 23 0 1 1;
#X connect 23 0 24 0;
#X connect 26 0 18 0;
#X connect 27 0 4 0;
#X connect 30 0 34 0;
#X connect 31 0 4 0;
#X connect 31 1 30 0;
#X connect 31 2 32 0;
#X connect 32 0 34 0;
#X connect 33 0 34 0;
#X connect 34 0 3 0;
#X connect 34 1 2 0;
#X connect 34 1 41 0;
#X connect 34 2 35 0;
#X connect 35 0 36 2;
#X connect 36 0 37 0;
#X connect 42 0 23 0;
#X connect 42 0 17 0;
#X connect 43 0 42 0;
#X connect 44 0 45 0;
#X connect 45 0 46 0;
#X connect 46 0 0 0;
