#N canvas 963 29 951 1010 10;
#X obj 170 134 bng 57 250 50 0 empty again empty 17 7 0 10 #e4e4e4 #000000 #373737;
#X obj 450 153 f;
#X obj 170 388 nbx 13 26 -1e+37 1e+37 0 0 empty empty empty 0 -8 0 10 #e4e4e4 #373737 #373737 0 256;
#X obj 170 262 tabplay~ audio;
#X obj 450 335 soundfiler;
#X obj 228 301 dac~;
#X obj 450 180 t f f, f 16;
#X obj 212 334 r follower;
#X msg 450 293 read -resize Test\$1.wav audio;
#X obj 523 227 s follower;
#X obj 278 15 array define audio;
#X obj 450 115 bng 25 250 50 0 empty empty empty 17 7 0 10 #e4e4e4 #000000 #373737;
#X msg 523 204 score Test\$1.txt;
#X obj 231 70 t b b b;
#X obj 231 15 bng 42 250 50 0 empty empty empty 17 7 0 10 #e4e4e4 #000000 #373737;
#X msg 46 262 follow 1;
#X msg 114 262 start;
#X obj 170 364 o.scofo~ -kappa, f 21;
#X obj 450 364 nbx 7 18 -1e+37 1e+37 0 0 empty empty empty 0 -8 0 10 #191919 #e1e1e1 #e1e1e1 0 256;
#X obj 170 15 key;
#X obj 170 41 nbx 4 18 -1e+37 1e+37 0 0 empty empty empty 0 -8 0 10 #e4e4e4 #373737 #373737 0 256;
#X obj 170 66 sel 32;
#X obj 14 204 switch~;
#X obj 14 60 bng 57 250 50 0 empty empty empty 17 7 0 10 #e4e4e4 #000000 #373737;
#X obj 14 11 key;
#X obj 14 37 sel 113;
#X obj 14 160 bng 25 250 50 0 empty empty empty 17 7 0 10 #e4e4e4 #000000 #373737;
#X obj 103 134 tgl 57 0 empty empty empty 17 7 0 10 #e4e4e4 #000000 #373737 0 1;
#X obj 450 32 loadbang;
#X obj 170 197 t b b b b, f 30;
#X obj 359 249 metro 1;
#X obj 332 293 else/count, f 12;
#X obj 359 197 loadbang;
#X obj 170 421 list, f 31;
#X obj 170 447 print;
#X msg 327 249 0;
#X obj 350 340 nbx 4 18 -1e+37 1e+37 0 0 empty empty empty 0 -8 0 10 #e4e4e4 #373737 #373737 0 256;
#X msg 70 203 \; pd dsp 1;
#X obj 14 134 else/loop 16;
#X obj 25 366 antescsofo~;
#X obj 25 388 nbx 5 16 -1e+37 1e+37 0 0 empty empty empty 0 -9 0 10 #fcfcfc #000000 #000000 0 256;
#X obj 44 419 nbx 5 16 -1e+37 1e+37 0 0 empty empty empty 0 -9 0 10 #fcfcfc #000000 #000000 0 256;
#X msg 529 113 1;
#X obj 450 54 t b b;
#X connect 0 0 29 0;
#X connect 1 0 6 0;
#X connect 2 0 33 0;
#X connect 3 0 5 0;
#X connect 3 0 5 1;
#X connect 3 0 17 0;
#X connect 3 0 39 0;
#X connect 4 0 18 0;
#X connect 6 0 8 0;
#X connect 6 1 12 0;
#X connect 7 0 17 0;
#X connect 7 0 39 0;
#X connect 8 0 4 0;
#X connect 11 0 1 0;
#X connect 12 0 9 0;
#X connect 13 0 0 0;
#X connect 13 1 11 0;
#X connect 14 0 13 0;
#X connect 15 0 17 0;
#X connect 16 0 17 0;
#X connect 16 0 39 0;
#X connect 17 0 2 0;
#X connect 19 0 20 0;
#X connect 20 0 21 0;
#X connect 21 0 0 0;
#X connect 23 0 38 0;
#X connect 24 0 25 0;
#X connect 25 0 23 0;
#X connect 26 0 22 0;
#X connect 27 0 22 0;
#X connect 27 0 37 0;
#X connect 28 0 43 0;
#X connect 29 0 3 0;
#X connect 29 1 15 0;
#X connect 29 2 16 0;
#X connect 29 3 35 0;
#X connect 30 0 31 0;
#X connect 31 0 33 1;
#X connect 31 0 36 0;
#X connect 32 0 30 0;
#X connect 33 0 34 0;
#X connect 35 0 31 0;
#X connect 38 0 26 0;
#X connect 39 0 40 0;
#X connect 39 1 41 0;
#X connect 42 0 1 1;
#X connect 43 0 11 0;
#X connect 43 1 42 0;
