#N canvas 963 23 951 1016 10;
#X obj 13 250 nbx 3 24 -1e+37 1e+37 0 0 empty empty empty 0 -9 0 20 #fcfcfc #ff0400 #ff0400 0 256;
#X obj 13 77 readsf~;
#X msg 28 45 0;
#X obj 140 14 cnv 18 10 10 empty empty BWV-1007 20 12 0 18 #ffffff #000000 0;
#X obj 13 226 o.scofo~, f 31;
#X obj 196 250 nbx 5 16 -1e+37 1e+37 0 0 empty empty empty 0 -9 0 10 #fcfcfc #000000 #000000 0 256;
#X obj 13 279 list, f 31;
#X obj 13 301 print;
#X msg 65 76 \; pd dsp \$1;
#X obj 65 53 tgl 18 0 empty empty empty 0 -9 0 10 #fcfcfc #000000 #000000 0 1;
#X obj 27 117 dac~;
#X msg 43 197 score score.scofo.txt \, start;
#X obj 13 152 *~ 32;
#X msg 13 18 open audio2.wav \, 1;
#X connect 0 0 6 0;
#X connect 1 0 10 0;
#X connect 1 0 10 1;
#X connect 1 0 12 0;
#X connect 2 0 1 0;
#X connect 4 0 0 0;
#X connect 4 1 5 0;
#X connect 5 0 6 1;
#X connect 6 0 7 0;
#X connect 9 0 8 0;
#X connect 11 0 4 0;
#X connect 12 0 4 0;
#X connect 13 0 1 0;
