#N canvas 963 23 951 1016 10;
#X obj 10 290 s event;
#N canvas 675 386 570 290 1-event-after-delay 0;
#X text 238 238 <= For better precisition check your I/O VectorSize on Options;
#X msg 36 88 0;
#X floatatom 173 238 8 0 0 0 - - - 0;
#X msg 173 113 1;
#X obj 173 154 metro 1;
#X obj 173 84 sel 1;
#X obj 172 55 r event;
#X obj 9 9 r mydelay;
#X obj 173 176 int;
#X obj 173 206 + 1;
#X obj 9 62 nbx 5 16 -1e+37 1e+37 0 0 empty empty empty 0 -9 0 10 #fcfcfc #000000 #000000 0 256;
#X obj 9 40 t a b;
#X connect 1 0 4 0;
#X connect 1 0 9 1;
#X connect 3 0 4 0;
#X connect 4 0 8 0;
#X connect 5 0 3 0;
#X connect 6 0 5 0;
#X connect 7 0 11 0;
#X connect 8 0 9 0;
#X connect 9 0 2 0;
#X connect 9 0 8 1;
#X connect 11 0 10 0;
#X connect 11 1 1 0;
#X restore 239 15 pd 1-event-after-delay;
#X text 229 175 Check charlesneimog.github.io/OScofo to Documentation about the Score Languague., f 44;
#X obj 379 15 receive measure;
#X text 114 245 BPM;
#X text 14 265 Event Index;
#X floatatom 62 245 8 0 0 0 - - - 0;
#X obj 35 124 dac~;
#X text 53 50 4);
#X text 119 14 3);
#X text 150 156 2);
#X text 186 126 1);
#X floatatom 10 245 8 0 0 0 - - - 0;
#X obj 10 201 o.scofo~, f 18;
#X obj 27 51 tgl 25 0 empty empty empty 17 7 0 10 #fcfcfc #000000 #000000 0 1;
#X msg 72 126 score bwv-1013.txt;
#X msg 109 155 start;
#X msg 10 15 open bwv-1013.mp3;
#X msg 233 211 browse https://charlesneimog.github.io/OScofo/score/intro/, f 33;
#X obj 233 260 pdcontrol;
#X obj 10 96 else/play.file~;
#X msg 379 61 measure 3;
#X msg 379 38 set \$1 \$2;
#X text 107 96 <= Require ELSE library;
#X connect 3 0 22 0;
#X connect 12 0 0 0;
#X connect 13 0 12 0;
#X connect 13 1 6 0;
#X connect 14 0 20 0;
#X connect 15 0 13 0;
#X connect 16 0 13 0;
#X connect 17 0 20 0;
#X connect 18 0 19 0;
#X connect 20 0 13 0;
#X connect 20 0 7 1;
#X connect 20 0 7 0;
#X connect 22 0 21 0;
