#N canvas 1282 23 632 1016 10;
#X obj 13 250 nbx 3 24 -1e+37 1e+37 0 0 empty empty empty 0 -9 0 20 #fcfcfc #ff0400 #ff0400 0 256;
#X obj 13 77 readsf~;
#X obj 190 72 metro 1;
#X obj 190 94 int;
#X obj 190 116 + 1;
#X obj 190 138 nbx 5 16 -1e+37 1e+37 0 0 empty empty empty 0 -9 0 10 #fcfcfc #000000 #000000 0 256;
#X obj 190 47 bng 18 250 50 0 empty empty empty 0 -9 0 10 #fcfcfc #000000 #000000;
#X obj 190 159 * 0.001;
#X msg 28 45 0;
#X obj 125 17 cnv 18 10 10 empty empty BWV-1013 20 12 0 18 #ffffff #000000 0;
#X obj 13 226 o.scofo~, f 31;
#X obj 196 250 nbx 5 16 -1e+37 1e+37 0 0 empty empty empty 0 -9 0 10 #fcfcfc #000000 #000000 0 256;
#X obj 13 279 list, f 31;
#X obj 13 301 print;
#X msg 65 76 \; pd dsp \$1;
#X obj 65 53 tgl 18 0 empty empty empty 0 -9 0 10 #fcfcfc #000000 #000000 0 1;
#X obj 27 117 dac~;
#X msg 43 197 score score.txt \, start;
#X msg 13 18 open audio2.wav \, 1;
#X connect 0 0 12 0;
#X connect 1 0 10 0;
#X connect 1 0 16 0;
#X connect 1 0 16 1;
#X connect 2 0 3 0;
#X connect 3 0 4 0;
#X connect 4 0 3 1;
#X connect 4 0 5 0;
#X connect 5 0 7 0;
#X connect 6 0 2 0;
#X connect 8 0 1 0;
#X connect 10 0 0 0;
#X connect 10 1 11 0;
#X connect 11 0 12 1;
#X connect 12 0 13 0;
#X connect 15 0 14 0;
#X connect 17 0 10 0;
#X connect 18 0 1 0;
#X connect 18 0 6 0;
