#N canvas 963 23 951 1016 10;
#X obj 13 259 o.scofo~, f 18;
#X msg 68 205 score score.txt;
#X obj 13 283 nbx 5 16 -1e+37 1e+37 0 0 empty empty empty 0 -9 0 10 #fcfcfc #000000 #000000 0 256;
#X msg 55 175 start;
#X obj 13 77 readsf~;
#X msg 13 30 open audio.wav \, 1;
#X obj 118 284 nbx 5 16 -1e+37 1e+37 0 0 empty empty empty 0 -9 0 10 #fcfcfc #000000 #000000 0 256;
#X obj 44 119 dac~;
#X obj 13 152 *~ 1;
#X connect 0 0 2 0;
#X connect 0 1 6 0;
#X connect 1 0 0 0;
#X connect 3 0 0 0;
#X connect 4 0 7 0;
#X connect 4 0 7 1;
#X connect 4 0 8 0;
#X connect 5 0 4 0;
#X connect 8 0 0 0;
