#N canvas 963 23 951 1016 10;
#X obj 13 200 o.scofo~, f 18;
#X obj 13 224 nbx 3 24 -1e+37 1e+37 0 0 empty empty empty 0 -9 0 20 #fcfcfc #ff0400 #ff0400 0 256;
#X obj 13 77 readsf~;
#X msg 13 18 open audio.wav \, 1;
#X obj 44 149 dac~;
#X msg 61 77 \; pd dsp 1;
#X msg 43 171 score score.txt \, start;
#X obj 190 72 metro 1;
#X obj 190 94 int;
#X obj 190 116 + 1;
#X obj 190 138 nbx 5 16 -1e+37 1e+37 0 0 empty empty empty 0 -9 0 10 #fcfcfc #000000 #000000 0 256;
#X obj 190 47 bng 18 250 50 0 empty empty empty 0 -9 0 10 #fcfcfc #000000 #000000;
#X obj 190 159 * 0.001;
#X msg 28 45 0;
#X obj 44 125 *~ 0.2;
#N canvas 1282 23 632 1016 plaits 0;
#X obj 6 337 else/plaits~ -model 11 -midi 60, f 35;
#X obj 5 410 dac~;
#X msg 109 287 trigger 1;
#X obj 109 254 loadbang;
#X obj 6 311 pack f f;
#X obj 6 277 makenote 100 500;
#X obj 5 10 inlet;
#X obj 5 32 else/spread 14;
#X obj 86 68 nbx 5 16 -1e+37 1e+37 0 0 empty empty empty 0 -9 0 10 #fcfcfc #000000 #000000 0 256;
#X obj 86 89 % 16;
#X obj 86 111 + 1;
#X obj 86 133 nbx 5 16 -1e+37 1e+37 0 0 empty empty empty 0 -9 0 10 #fcfcfc #000000 #000000 0 256;
#X obj 86 154 sel 1;
#X msg 86 176 60;
#X obj 230 336 else/plaits~ -model 11 -midi 60, f 35;
#X msg 333 286 trigger 1;
#X obj 333 253 loadbang;
#X obj 230 310 pack f f;
#X obj 230 276 makenote 100 500;
#X msg 135 178 64;
#X obj 448 335 else/plaits~ -model 11 -midi 60, f 35;
#X msg 551 285 trigger 1;
#X obj 551 252 loadbang;
#X obj 448 309 pack f f;
#X obj 448 275 makenote 100 500;
#X msg 408 182 45;
#X connect 0 0 1 0;
#X connect 2 0 0 0;
#X connect 3 0 2 0;
#X connect 4 0 0 0;
#X connect 5 0 4 0;
#X connect 5 1 4 1;
#X connect 6 0 7 0;
#X connect 7 1 8 0;
#X connect 8 0 9 0;
#X connect 9 0 10 0;
#X connect 10 0 11 0;
#X connect 11 0 12 0;
#X connect 12 0 13 0;
#X connect 12 0 19 0;
#X connect 12 0 25 0;
#X connect 13 0 5 0;
#X connect 14 0 1 1;
#X connect 15 0 14 0;
#X connect 16 0 15 0;
#X connect 17 0 14 0;
#X connect 18 0 17 0;
#X connect 18 1 17 1;
#X connect 19 0 18 0;
#X connect 20 0 1 1;
#X connect 20 1 1 0;
#X connect 21 0 20 0;
#X connect 22 0 21 0;
#X connect 23 0 20 0;
#X connect 24 0 23 0;
#X connect 24 1 23 1;
#X connect 25 0 24 0;
#X restore 13 273 pd plaits;
#X connect 0 0 1 0;
#X connect 1 0 15 0;
#X connect 2 0 0 0;
#X connect 2 0 14 0;
#X connect 3 0 2 0;
#X connect 3 0 11 0;
#X connect 6 0 0 0;
#X connect 7 0 8 0;
#X connect 8 0 9 0;
#X connect 9 0 8 1;
#X connect 9 0 10 0;
#X connect 10 0 12 0;
#X connect 11 0 7 0;
#X connect 13 0 2 0;
#X connect 14 0 4 0;
#X connect 14 0 4 1;
