#N canvas 963 23 951 1016 10;
#X obj 13 171 o.scofo~, f 18;
#X obj 13 195 nbx 3 24 -1e+37 1e+37 0 0 empty empty empty 0 -9 0 20 #fcfcfc #ff0400 #ff0400 0 256;
#X obj 13 77 readsf~;
#X msg 13 18 open audio.wav \, 1;
#X obj 44 119 dac~;
#X obj 13 251 cyclone/click~;
#X obj 13 288 dac~;
#X obj 13 226 bng 18 250 50 0 empty empty empty 0 -9 0 10 #fcfcfc #000000 #000000;
#X msg 61 77 \; pd dsp 1;
#X msg 43 142 score score.txt \, start;
#X obj 190 72 metro 1;
#X obj 190 94 int;
#X obj 190 116 + 1;
#X obj 190 138 nbx 5 16 -1e+37 1e+37 0 0 empty empty empty 0 -9 0 10 #fcfcfc #000000 #000000 0 256;
#X obj 103 251 pack f f, f 15;
#X obj 190 47 bng 18 250 50 0 empty empty empty 0 -9 0 10 #fcfcfc #000000 #000000;
#X obj 103 273 print;
#X obj 190 159 * 0.001;
#X connect 0 0 1 0;
#X connect 1 0 7 0;
#X connect 1 0 14 0;
#X connect 2 0 4 0;
#X connect 2 0 4 1;
#X connect 2 0 0 0;
#X connect 3 0 2 0;
#X connect 3 0 15 0;
#X connect 5 0 6 0;
#X connect 5 0 6 1;
#X connect 7 0 5 0;
#X connect 9 0 0 0;
#X connect 10 0 11 0;
#X connect 11 0 12 0;
#X connect 12 0 11 1;
#X connect 12 0 13 0;
#X connect 13 0 17 0;
#X connect 14 0 16 0;
#X connect 15 0 10 0;
#X connect 17 0 14 1;
