#N canvas 963 23 951 1016 12;
#X obj 4 7 adc~;
#N canvas 0 0 450 250 (subpatch) 0;
#X array attack 400 float 2;
#X coords 0 -1 400 1 380 148 1 0 0;
#X restore 235 25 graph;
#X obj 181 276 tabwrite attack;
#X obj 99 121 int;
#X obj 99 173 % 400;
#X obj 99 147 + 1;
#X obj 247 363 exp;
#X obj 4 48 else/rms~ 256 64;
#X obj 4 73 t f b, f 14;
#X obj 2 294 expr exp(-0.5 * $f1);
#X obj 2 319 nbx 10 18 -1e+37 1e+37 0 0 empty empty empty 0 -10 0 12 #fcfcfc #000000 #000000 0 256;
#X obj 4 239 nbx 5 18 -1e+37 1e+37 0 0 empty empty empty 0 -10 0 12 #fcfcfc #000000 #000000 0 256;
#X obj 4 189 rmstodb;
#X obj 4 98 nbx 5 18 -1e+37 1e+37 0 0 empty empty empty 0 -10 0 12 #fcfcfc #000000 #000000 0 256;
#X connect 0 0 7 0;
#X connect 3 0 5 0;
#X connect 4 0 2 1;
#X connect 5 0 3 1;
#X connect 5 0 4 0;
#X connect 7 0 8 0;
#X connect 8 0 13 0;
#X connect 8 1 3 0;
#X connect 9 0 10 0;
#X connect 12 0 11 0;
